<svg xmlns="http://www.w3.org/2000/svg" xmlns:xlink="http://www.w3.org/1999/xlink" width="500" zoomAndPan="magnify" viewBox="0 0 375 374.999991" height="500" preserveAspectRatio="xMidYMid meet" version="1.0"><defs><clipPath id="ef8836ec41"><path d="M 37.5 37.5 L 337.5 37.5 L 337.5 337.5 L 37.5 337.5 Z M 37.5 37.5 " clip-rule="nonzero"/></clipPath><clipPath id="3c6f2b17b7"><path d="M 187.5 37.5 C 104.65625 37.5 37.5 104.65625 37.5 187.5 C 37.5 270.34375 104.65625 337.5 187.5 337.5 C 270.34375 337.5 337.5 270.34375 337.5 187.5 C 337.5 104.65625 270.34375 37.5 187.5 37.5 Z M 187.5 37.5 " clip-rule="nonzero"/></clipPath><clipPath id="1bdd44a9a2"><path d="M 97.601562 97.601562 L 277.390625 97.601562 L 277.390625 277.390625 L 97.601562 277.390625 Z M 97.601562 97.601562 " clip-rule="nonzero"/></clipPath><clipPath id="b8819319ee"><path d="M 187.496094 97.601562 C 137.847656 97.601562 97.601562 137.847656 97.601562 187.496094 C 97.601562 237.144531 137.847656 277.390625 187.496094 277.390625 C 237.144531 277.390625 277.390625 237.144531 277.390625 187.496094 C 277.390625 137.847656 237.144531 97.601562 187.496094 97.601562 Z M 187.496094 97.601562 " clip-rule="nonzero"/></clipPath><clipPath id="53eaee0719"><path d="M 150 44 L 353 44 L 353 246 L 150 246 Z M 150 44 " clip-rule="nonzero"/></clipPath><clipPath id="1fe1bf82f9"><path d="M 352.40625 81.632812 L 188.125 245.914062 L 150.960938 208.746094 L 315.238281 44.464844 Z M 352.40625 81.632812 " clip-rule="nonzero"/></clipPath><clipPath id="eacf957363"><path d="M 0.71875 0.398438 L 202.558594 0.398438 L 202.558594 202 L 0.71875 202 Z M 0.71875 0.398438 " clip-rule="nonzero"/></clipPath><clipPath id="832c26353a"><path d="M 202.40625 37.632812 L 38.125 201.914062 L 0.960938 164.746094 L 165.238281 0.464844 Z M 202.40625 37.632812 " clip-rule="nonzero"/></clipPath><clipPath id="b841ce9a45"><rect x="0" width="203" y="0" height="202"/></clipPath><clipPath id="4342c7dc97"><path d="M 150 44 L 353 44 L 353 246 L 150 246 Z M 150 44 " clip-rule="nonzero"/></clipPath><clipPath id="7b8dab10fe"><path d="M 352.40625 81.632812 L 188.003906 246.035156 L 150.878906 208.910156 L 315.28125 44.507812 Z M 352.40625 81.632812 " clip-rule="nonzero"/></clipPath><clipPath id="974a8b342e"><path d="M 352.402344 81.636719 L 188.132812 245.90625 L 150.96875 208.742188 L 315.238281 44.472656 Z M 352.402344 81.636719 " clip-rule="nonzero"/></clipPath></defs><rect x="-37.5" width="450" fill="#ffffff" y="-37.499999" height="449.999989" fill-opacity="1"/><rect x="-37.5" width="450" fill="#ffffff" y="-37.499999" height="449.999989" fill-opacity="1"/><g clip-path="url(#ef8836ec41)"><g clip-path="url(#3c6f2b17b7)"><path stroke-linecap="butt" transform="matrix(0.75, 0, 0, 0.75, 37.500002, 37.499998)" fill="none" stroke-linejoin="miter" d="M 200.00001 0.00000328333 C 89.54167 0.00000328333 -0.00000271667 89.541676 -0.00000271667 200.000016 C -0.00000271667 310.458357 89.54167 400.00003 200.00001 400.00003 C 310.458351 400.00003 400.000024 310.458357 400.000024 200.000016 C 400.000024 89.541676 310.458351 0.00000328333 200.00001 0.00000328333 Z M 200.00001 0.00000328333 " stroke="#65d281" stroke-width="80" stroke-opacity="1" stroke-miterlimit="4"/></g></g><g clip-path="url(#1bdd44a9a2)"><g clip-path="url(#b8819319ee)"><path stroke-linecap="butt" transform="matrix(0.75, 0, 0, 0.75, 97.601072, 97.601067)" fill="none" stroke-linejoin="miter" d="M 119.86003 0.000660412 C 53.662113 0.000660412 0.000654412 53.662119 0.000654412 119.860036 C 0.000654412 186.057952 53.662113 239.719411 119.86003 239.719411 C 186.057946 239.719411 239.719405 186.057952 239.719405 119.860036 C 239.719405 53.662119 186.057946 0.000660412 119.86003 0.000660412 Z M 119.86003 0.000660412 " stroke="#65d281" stroke-width="80" stroke-opacity="1" stroke-miterlimit="4"/></g></g><g clip-path="url(#53eaee0719)"><g clip-path="url(#1fe1bf82f9)"><g transform="matrix(1, 0, 0, 1, 150, 44)"><g clip-path="url(#b841ce9a45)"><g clip-path="url(#eacf957363)"><g clip-path="url(#832c26353a)"><path fill="#4b9a5f" d="M 202.40625 37.632812 L 38.058594 201.980469 L 0.890625 164.8125 L 165.238281 0.464844 Z M 202.40625 37.632812 " fill-opacity="1" fill-rule="nonzero"/></g></g></g></g></g></g><g clip-path="url(#4342c7dc97)"><g clip-path="url(#7b8dab10fe)"><g clip-path="url(#974a8b342e)"><path stroke-linecap="butt" transform="matrix(-0.53033, 0.53033, -0.53033, -0.53033, 352.401896, 81.636719)" fill="none" stroke-linejoin="miter" d="M -0.00042302 -0.00042172 L 309.749195 -0.00042172 L 309.749195 70.076811 L -0.00042302 70.076811 Z M -0.00042302 -0.00042172 " stroke="#ffffff" stroke-width="30" stroke-opacity="1" stroke-miterlimit="4"/></g></g></g><path stroke-linecap="butt" transform="matrix(-0.53033, -0.53033, 0.53033, -0.53033, 188.084846, 229.967915)" fill="none" stroke-linejoin="miter" d="M 0.00186657 20.00179 L 90.00699 19.998107 " stroke="#4b9a5f" stroke-width="40" stroke-opacity="1" stroke-miterlimit="4"/></svg>